<svg xmlns="http://www.w3.org/2000/svg" xmlns:xlink="http://www.w3.org/1999/xlink" width="1080" zoomAndPan="magnify" viewBox="0 0 810 809.999993" height="1080" preserveAspectRatio="xMidYMid meet" version="1.0"><path fill="#ffffff" d="M 531.5625 405 C 531.5625 407.070312 531.511719 409.140625 531.410156 411.210938 C 531.308594 413.277344 531.15625 415.34375 530.953125 417.40625 C 530.75 419.464844 530.496094 421.523438 530.191406 423.570312 C 529.886719 425.621094 529.535156 427.660156 529.128906 429.691406 C 528.726562 431.722656 528.273438 433.742188 527.769531 435.753906 C 527.265625 437.761719 526.714844 439.757812 526.113281 441.738281 C 525.511719 443.722656 524.863281 445.6875 524.164062 447.636719 C 523.464844 449.585938 522.722656 451.519531 521.929688 453.433594 C 521.136719 455.347656 520.296875 457.238281 519.410156 459.113281 C 518.527344 460.984375 517.59375 462.835938 516.617188 464.660156 C 515.640625 466.488281 514.621094 468.289062 513.554688 470.066406 C 512.492188 471.84375 511.382812 473.59375 510.234375 475.3125 C 509.082031 477.035156 507.890625 478.730469 506.65625 480.394531 C 505.421875 482.058594 504.148438 483.6875 502.835938 485.289062 C 501.519531 486.890625 500.167969 488.460938 498.777344 489.996094 C 497.386719 491.527344 495.957031 493.027344 494.492188 494.492188 C 493.027344 495.957031 491.527344 497.386719 489.992188 498.777344 C 488.460938 500.167969 486.890625 501.519531 485.289062 502.835938 C 483.6875 504.148438 482.058594 505.421875 480.394531 506.65625 C 478.730469 507.890625 477.035156 509.082031 475.3125 510.234375 C 473.59375 511.382812 471.84375 512.492188 470.066406 513.554688 C 468.289062 514.621094 466.488281 515.640625 464.660156 516.617188 C 462.835938 517.59375 460.984375 518.527344 459.113281 519.410156 C 457.238281 520.296875 455.347656 521.136719 453.433594 521.929688 C 451.519531 522.722656 449.585938 523.464844 447.636719 524.164062 C 445.6875 524.863281 443.722656 525.511719 441.738281 526.113281 C 439.757812 526.714844 437.761719 527.265625 435.753906 527.769531 C 433.742188 528.273438 431.722656 528.726562 429.691406 529.128906 C 427.660156 529.535156 425.621094 529.890625 423.570312 530.191406 C 421.523438 530.496094 419.464844 530.75 417.40625 530.953125 C 415.34375 531.15625 413.277344 531.308594 411.210938 531.410156 C 409.140625 531.511719 407.070312 531.5625 405 531.5625 C 402.929688 531.5625 400.859375 531.511719 398.789062 531.410156 C 396.722656 531.308594 394.65625 531.15625 392.59375 530.953125 C 390.535156 530.75 388.476562 530.496094 386.429688 530.191406 C 384.378906 529.890625 382.339844 529.535156 380.308594 529.128906 C 378.277344 528.726562 376.257812 528.273438 374.246094 527.769531 C 372.238281 527.265625 370.242188 526.714844 368.261719 526.113281 C 366.277344 525.511719 364.3125 524.863281 362.363281 524.164062 C 360.414062 523.464844 358.480469 522.722656 356.566406 521.929688 C 354.652344 521.136719 352.761719 520.296875 350.886719 519.410156 C 349.015625 518.527344 347.164062 517.59375 345.339844 516.617188 C 343.511719 515.640625 341.710938 514.621094 339.933594 513.554688 C 338.15625 512.492188 336.40625 511.382812 334.6875 510.234375 C 332.964844 509.082031 331.269531 507.890625 329.605469 506.65625 C 327.941406 505.421875 326.3125 504.148438 324.710938 502.835938 C 323.109375 501.519531 321.539062 500.167969 320.003906 498.777344 C 318.472656 497.386719 316.972656 495.957031 315.507812 494.492188 C 314.042969 493.027344 312.613281 491.527344 311.222656 489.996094 C 309.832031 488.460938 308.480469 486.890625 307.164062 485.289062 C 305.851562 483.6875 304.578125 482.058594 303.34375 480.394531 C 302.109375 478.730469 300.917969 477.035156 299.765625 475.3125 C 298.617188 473.59375 297.507812 471.84375 296.445312 470.066406 C 295.378906 468.289062 294.359375 466.488281 293.382812 464.660156 C 292.40625 462.835938 291.472656 460.984375 290.589844 459.113281 C 289.703125 457.238281 288.863281 455.347656 288.070312 453.433594 C 287.277344 451.519531 286.535156 449.585938 285.835938 447.636719 C 285.136719 445.6875 284.488281 443.722656 283.886719 441.738281 C 283.285156 439.757812 282.734375 437.761719 282.230469 435.753906 C 281.726562 433.742188 281.273438 431.722656 280.871094 429.691406 C 280.464844 427.660156 280.109375 425.621094 279.808594 423.570312 C 279.503906 421.523438 279.25 419.464844 279.046875 417.40625 C 278.84375 415.34375 278.691406 413.277344 278.589844 411.210938 C 278.488281 409.140625 278.4375 407.070312 278.4375 405 C 278.4375 402.929688 278.488281 400.859375 278.589844 398.789062 C 278.691406 396.722656 278.84375 394.65625 279.046875 392.59375 C 279.25 390.535156 279.503906 388.476562 279.808594 386.429688 C 280.109375 384.378906 280.464844 382.339844 280.871094 380.308594 C 281.273438 378.277344 281.726562 376.257812 282.230469 374.246094 C 282.734375 372.238281 283.285156 370.242188 283.886719 368.261719 C 284.488281 366.277344 285.136719 364.3125 285.835938 362.363281 C 286.535156 360.414062 287.277344 358.480469 288.070312 356.566406 C 288.863281 354.652344 289.703125 352.761719 290.589844 350.886719 C 291.472656 349.015625 292.40625 347.164062 293.382812 345.339844 C 294.359375 343.511719 295.378906 341.710938 296.445312 339.933594 C 297.507812 338.15625 298.617188 336.40625 299.765625 334.6875 C 300.917969 332.964844 302.109375 331.269531 303.34375 329.605469 C 304.578125 327.941406 305.851562 326.3125 307.164062 324.710938 C 308.480469 323.109375 309.832031 321.539062 311.222656 320.003906 C 312.613281 318.472656 314.042969 316.972656 315.507812 315.507812 C 316.972656 314.042969 318.472656 312.613281 320.003906 311.222656 C 321.539062 309.832031 323.109375 308.480469 324.710938 307.164062 C 326.3125 305.851562 327.941406 304.578125 329.605469 303.34375 C 331.269531 302.109375 332.964844 300.917969 334.6875 299.765625 C 336.40625 298.617188 338.15625 297.507812 339.933594 296.445312 C 341.710938 295.378906 343.511719 294.359375 345.339844 293.382812 C 347.164062 292.40625 349.015625 291.472656 350.886719 290.589844 C 352.761719 289.703125 354.652344 288.863281 356.566406 288.070312 C 358.480469 287.277344 360.414062 286.535156 362.363281 285.835938 C 364.3125 285.136719 366.277344 284.488281 368.261719 283.886719 C 370.242188 283.285156 372.238281 282.734375 374.246094 282.230469 C 376.257812 281.726562 378.277344 281.273438 380.308594 280.871094 C 382.339844 280.464844 384.378906 280.109375 386.429688 279.808594 C 388.476562 279.503906 390.535156 279.25 392.59375 279.046875 C 394.65625 278.84375 396.722656 278.691406 398.789062 278.589844 C 400.859375 278.488281 402.929688 278.4375 405 278.4375 C 407.070312 278.4375 409.140625 278.488281 411.210938 278.589844 C 413.277344 278.691406 415.34375 278.84375 417.40625 279.046875 C 419.464844 279.25 421.523438 279.503906 423.570312 279.808594 C 425.621094 280.109375 427.660156 280.464844 429.691406 280.871094 C 431.722656 281.273438 433.742188 281.726562 435.753906 282.230469 C 437.761719 282.734375 439.757812 283.285156 441.738281 283.886719 C 443.722656 284.488281 445.6875 285.136719 447.636719 285.835938 C 449.585938 286.535156 451.519531 287.277344 453.433594 288.070312 C 455.347656 288.863281 457.238281 289.703125 459.113281 290.589844 C 460.984375 291.472656 462.835938 292.40625 464.660156 293.382812 C 466.488281 294.359375 468.289062 295.378906 470.066406 296.445312 C 471.84375 297.507812 473.59375 298.617188 475.3125 299.765625 C 477.035156 300.917969 478.730469 302.109375 480.394531 303.34375 C 482.058594 304.578125 483.6875 305.851562 485.289062 307.164062 C 486.890625 308.480469 488.460938 309.832031 489.996094 311.222656 C 491.527344 312.613281 493.027344 314.042969 494.492188 315.507812 C 495.957031 316.972656 497.386719 318.472656 498.777344 320.003906 C 500.167969 321.539062 501.519531 323.109375 502.835938 324.710938 C 504.148438 326.3125 505.421875 327.941406 506.65625 329.605469 C 507.890625 331.269531 509.082031 332.964844 510.234375 334.6875 C 511.382812 336.40625 512.492188 338.15625 513.554688 339.933594 C 514.621094 341.710938 515.640625 343.511719 516.617188 345.339844 C 517.59375 347.164062 518.527344 349.015625 519.410156 350.886719 C 520.296875 352.761719 521.136719 354.652344 521.929688 356.566406 C 522.722656 358.480469 523.464844 360.414062 524.164062 362.363281 C 524.863281 364.3125 525.511719 366.277344 526.113281 368.261719 C 526.714844 370.242188 527.265625 372.238281 527.769531 374.246094 C 528.273438 376.257812 528.726562 378.277344 529.128906 380.308594 C 529.535156 382.339844 529.886719 384.378906 530.191406 386.429688 C 530.496094 388.476562 530.75 390.535156 530.953125 392.59375 C 531.15625 394.65625 531.308594 396.722656 531.410156 398.789062 C 531.511719 400.859375 531.5625 402.929688 531.5625 405 " fill-opacity="1" fill-rule="nonzero"/><path fill="#ffffff" d="M 0 405 C 0 405 151.875 126.5625 405 126.5625 C 658.125 126.5625 810 405 810 405 C 810 405 658.125 683.4375 405 683.4375 C 151.875 683.4375 0 405 0 405 M 405 582.1875 C 407.898438 582.1875 410.796875 582.117188 413.695312 581.972656 C 416.589844 581.832031 419.480469 581.617188 422.367188 581.335938 C 425.253906 581.050781 428.128906 580.695312 431 580.269531 C 433.867188 579.84375 436.722656 579.347656 439.566406 578.78125 C 442.410156 578.21875 445.238281 577.582031 448.054688 576.878906 C 450.867188 576.171875 453.660156 575.398438 456.433594 574.558594 C 459.210938 573.714844 461.960938 572.808594 464.691406 571.828125 C 467.421875 570.851562 470.128906 569.808594 472.804688 568.699219 C 475.484375 567.589844 478.136719 566.414062 480.757812 565.175781 C 483.378906 563.9375 485.96875 562.632812 488.527344 561.265625 C 491.082031 559.898438 493.605469 558.46875 496.09375 556.980469 C 498.578125 555.488281 501.027344 553.9375 503.441406 552.324219 C 505.851562 550.714844 508.222656 549.046875 510.550781 547.316406 C 512.878906 545.589844 515.164062 543.808594 517.40625 541.96875 C 519.648438 540.128906 521.84375 538.234375 523.992188 536.289062 C 526.140625 534.339844 528.238281 532.339844 530.289062 530.289062 C 532.339844 528.238281 534.339844 526.140625 536.289062 523.992188 C 538.234375 521.84375 540.128906 519.648438 541.96875 517.40625 C 543.808594 515.164062 545.589844 512.878906 547.316406 510.550781 C 549.046875 508.222656 550.714844 505.851562 552.324219 503.441406 C 553.9375 501.027344 555.488281 498.578125 556.980469 496.09375 C 558.46875 493.605469 559.898438 491.082031 561.265625 488.527344 C 562.632812 485.96875 563.9375 483.378906 565.175781 480.757812 C 566.414062 478.136719 567.589844 475.484375 568.699219 472.808594 C 569.808594 470.128906 570.851562 467.421875 571.828125 464.691406 C 572.804688 461.960938 573.714844 459.210938 574.558594 456.433594 C 575.398438 453.660156 576.171875 450.867188 576.878906 448.054688 C 577.582031 445.238281 578.21875 442.410156 578.78125 439.566406 C 579.347656 436.722656 579.84375 433.867188 580.269531 431 C 580.695312 428.128906 581.050781 425.253906 581.335938 422.367188 C 581.617188 419.480469 581.832031 416.589844 581.972656 413.695312 C 582.117188 410.796875 582.1875 407.898438 582.1875 405 C 582.1875 402.101562 582.117188 399.203125 581.972656 396.304688 C 581.832031 393.410156 581.617188 390.519531 581.335938 387.632812 C 581.050781 384.746094 580.695312 381.871094 580.269531 379 C 579.84375 376.132812 579.347656 373.277344 578.78125 370.433594 C 578.21875 367.589844 577.582031 364.761719 576.878906 361.945312 C 576.171875 359.132812 575.398438 356.339844 574.558594 353.566406 C 573.714844 350.789062 572.808594 348.039062 571.828125 345.308594 C 570.851562 342.578125 569.808594 339.871094 568.699219 337.191406 C 567.589844 334.515625 566.414062 331.863281 565.175781 329.242188 C 563.9375 326.621094 562.632812 324.03125 561.265625 321.472656 C 559.898438 318.917969 558.46875 316.394531 556.980469 313.90625 C 555.488281 311.421875 553.9375 308.972656 552.324219 306.558594 C 550.714844 304.148438 549.046875 301.777344 547.316406 299.449219 C 545.589844 297.121094 543.808594 294.835938 541.96875 292.59375 C 540.128906 290.351562 538.234375 288.15625 536.289062 286.007812 C 534.339844 283.859375 532.339844 281.761719 530.289062 279.710938 C 528.238281 277.660156 526.140625 275.660156 523.992188 273.710938 C 521.84375 271.765625 519.648438 269.871094 517.40625 268.03125 C 515.164062 266.191406 512.878906 264.410156 510.550781 262.683594 C 508.222656 260.953125 505.851562 259.285156 503.441406 257.675781 C 501.027344 256.0625 498.578125 254.511719 496.09375 253.019531 C 493.605469 251.53125 491.082031 250.101562 488.527344 248.734375 C 485.96875 247.367188 483.378906 246.0625 480.757812 244.824219 C 478.136719 243.585938 475.484375 242.410156 472.804688 241.300781 C 470.128906 240.191406 467.421875 239.148438 464.691406 238.171875 C 461.960938 237.191406 459.210938 236.285156 456.433594 235.441406 C 453.660156 234.601562 450.867188 233.828125 448.054688 233.121094 C 445.238281 232.417969 442.410156 231.78125 439.566406 231.21875 C 436.722656 230.652344 433.867188 230.15625 431 229.730469 C 428.128906 229.304688 425.253906 228.949219 422.367188 228.664062 C 419.480469 228.382812 416.589844 228.167969 413.695312 228.027344 C 410.796875 227.882812 407.898438 227.8125 405 227.8125 C 402.101562 227.8125 399.203125 227.882812 396.304688 228.027344 C 393.410156 228.167969 390.519531 228.382812 387.632812 228.664062 C 384.746094 228.949219 381.871094 229.304688 379 229.730469 C 376.132812 230.15625 373.277344 230.652344 370.433594 231.21875 C 367.589844 231.78125 364.761719 232.417969 361.945312 233.121094 C 359.132812 233.828125 356.339844 234.601562 353.566406 235.441406 C 350.789062 236.285156 348.039062 237.191406 345.308594 238.171875 C 342.578125 239.148438 339.871094 240.191406 337.191406 241.300781 C 334.515625 242.410156 331.863281 243.585938 329.242188 244.824219 C 326.621094 246.0625 324.03125 247.367188 321.472656 248.734375 C 318.917969 250.101562 316.394531 251.53125 313.90625 253.019531 C 311.421875 254.511719 308.972656 256.0625 306.558594 257.675781 C 304.148438 259.285156 301.777344 260.953125 299.449219 262.683594 C 297.121094 264.410156 294.835938 266.191406 292.59375 268.03125 C 290.351562 269.871094 288.15625 271.765625 286.007812 273.710938 C 283.859375 275.660156 281.761719 277.660156 279.710938 279.710938 C 277.660156 281.761719 275.660156 283.859375 273.710938 286.007812 C 271.765625 288.15625 269.871094 290.351562 268.03125 292.59375 C 266.191406 294.835938 264.410156 297.121094 262.683594 299.449219 C 260.953125 301.777344 259.285156 304.148438 257.675781 306.558594 C 256.0625 308.972656 254.511719 311.421875 253.019531 313.90625 C 251.53125 316.394531 250.101562 318.917969 248.734375 321.472656 C 247.367188 324.03125 246.0625 326.621094 244.824219 329.242188 C 243.585938 331.863281 242.410156 334.515625 241.300781 337.191406 C 240.191406 339.871094 239.148438 342.578125 238.171875 345.308594 C 237.191406 348.039062 236.285156 350.789062 235.441406 353.566406 C 234.601562 356.339844 233.828125 359.132812 233.121094 361.945312 C 232.417969 364.761719 231.78125 367.589844 231.21875 370.433594 C 230.652344 373.277344 230.15625 376.132812 229.730469 379 C 229.304688 381.871094 228.949219 384.746094 228.664062 387.632812 C 228.382812 390.519531 228.167969 393.410156 228.027344 396.304688 C 227.882812 399.203125 227.8125 402.101562 227.8125 405 C 227.8125 407.898438 227.882812 410.796875 228.027344 413.695312 C 228.167969 416.589844 228.382812 419.480469 228.664062 422.367188 C 228.949219 425.253906 229.304688 428.128906 229.730469 431 C 230.15625 433.867188 230.652344 436.722656 231.21875 439.566406 C 231.78125 442.410156 232.417969 445.238281 233.121094 448.054688 C 233.828125 450.867188 234.601562 453.660156 235.441406 456.433594 C 236.285156 459.210938 237.191406 461.960938 238.171875 464.691406 C 239.148438 467.421875 240.191406 470.128906 241.300781 472.808594 C 242.410156 475.484375 243.585938 478.136719 244.824219 480.757812 C 246.0625 483.378906 247.367188 485.96875 248.734375 488.527344 C 250.101562 491.082031 251.53125 493.605469 253.019531 496.09375 C 254.511719 498.578125 256.0625 501.027344 257.675781 503.441406 C 259.285156 505.851562 260.953125 508.222656 262.683594 510.550781 C 264.410156 512.878906 266.191406 515.164062 268.03125 517.40625 C 269.871094 519.648438 271.765625 521.84375 273.710938 523.992188 C 275.660156 526.140625 277.660156 528.238281 279.710938 530.289062 C 281.761719 532.339844 283.859375 534.339844 286.007812 536.289062 C 288.15625 538.234375 290.351562 540.128906 292.59375 541.96875 C 294.835938 543.808594 297.121094 545.589844 299.449219 547.316406 C 301.777344 549.046875 304.148438 550.714844 306.558594 552.324219 C 308.972656 553.9375 311.421875 555.488281 313.90625 556.980469 C 316.394531 558.46875 318.917969 559.898438 321.472656 561.265625 C 324.03125 562.632812 326.621094 563.9375 329.242188 565.175781 C 331.863281 566.414062 334.515625 567.589844 337.191406 568.699219 C 339.871094 569.808594 342.578125 570.851562 345.308594 571.828125 C 348.039062 572.804688 350.789062 573.714844 353.566406 574.558594 C 356.339844 575.398438 359.132812 576.171875 361.945312 576.878906 C 364.761719 577.582031 367.589844 578.21875 370.433594 578.78125 C 373.277344 579.347656 376.132812 579.84375 379 580.269531 C 381.871094 580.695312 384.746094 581.050781 387.632812 581.335938 C 390.519531 581.617188 393.410156 581.832031 396.304688 581.972656 C 399.203125 582.117188 402.101562 582.1875 405 582.1875 " fill-opacity="1" fill-rule="nonzero"/></svg>