<svg xmlns="http://www.w3.org/2000/svg" xmlns:xlink="http://www.w3.org/1999/xlink" width="1080" zoomAndPan="magnify" viewBox="0 0 810 809.999993" height="1080" preserveAspectRatio="xMidYMid meet" version="1.0"><path fill="#ffffff" d="M 784.789062 98.210938 C 785.371094 98.796875 785.925781 99.410156 786.449219 100.050781 C 786.976562 100.691406 787.464844 101.355469 787.925781 102.046875 C 788.382812 102.734375 788.808594 103.441406 789.199219 104.171875 C 789.585938 104.902344 789.9375 105.648438 790.253906 106.414062 C 790.570312 107.179688 790.847656 107.957031 791.089844 108.75 C 791.328125 109.542969 791.527344 110.34375 791.691406 111.15625 C 791.851562 111.964844 791.972656 112.785156 792.054688 113.605469 C 792.132812 114.429688 792.175781 115.253906 792.175781 116.082031 C 792.175781 116.910156 792.132812 117.734375 792.054688 118.558594 C 791.972656 119.382812 791.851562 120.199219 791.691406 121.011719 C 791.527344 121.824219 791.328125 122.625 791.089844 123.417969 C 790.847656 124.207031 790.570312 124.988281 790.253906 125.75 C 789.9375 126.515625 789.585938 127.261719 789.199219 127.992188 C 788.808594 128.722656 788.382812 129.433594 787.925781 130.121094 C 787.464844 130.808594 786.976562 131.472656 786.449219 132.113281 C 785.925781 132.753906 785.371094 133.367188 784.789062 133.953125 L 731.988281 186.804688 L 630.738281 85.554688 L 683.539062 32.703125 C 684.125 32.117188 684.738281 31.5625 685.378906 31.035156 C 686.019531 30.511719 686.683594 30.015625 687.375 29.558594 C 688.0625 29.097656 688.773438 28.671875 689.503906 28.28125 C 690.234375 27.890625 690.984375 27.535156 691.75 27.21875 C 692.515625 26.902344 693.296875 26.621094 694.089844 26.382812 C 694.882812 26.140625 695.683594 25.941406 696.496094 25.777344 C 697.308594 25.617188 698.128906 25.496094 698.953125 25.414062 C 699.777344 25.332031 700.605469 25.292969 701.433594 25.292969 C 702.261719 25.292969 703.089844 25.332031 703.914062 25.414062 C 704.738281 25.496094 705.558594 25.617188 706.371094 25.777344 C 707.183594 25.941406 707.988281 26.140625 708.78125 26.382812 C 709.574219 26.621094 710.355469 26.902344 711.121094 27.21875 C 711.886719 27.535156 712.632812 27.890625 713.363281 28.28125 C 714.097656 28.671875 714.804688 29.097656 715.496094 29.558594 C 716.183594 30.015625 716.847656 30.511719 717.488281 31.035156 C 718.132812 31.5625 718.746094 32.117188 719.332031 32.703125 L 784.789062 98.160156 Z M 696.195312 222.546875 L 594.945312 121.296875 L 250.035156 466.257812 C 247.210938 469.082031 245.171875 472.386719 243.910156 476.179688 L 203.15625 598.386719 C 202.789062 599.5 202.578125 600.644531 202.527344 601.816406 C 202.476562 602.988281 202.585938 604.148438 202.855469 605.289062 C 203.125 606.429688 203.546875 607.515625 204.117188 608.539062 C 204.691406 609.5625 205.390625 610.492188 206.222656 611.320312 C 207.050781 612.152344 207.980469 612.851562 209.003906 613.425781 C 210.027344 613.996094 211.113281 614.417969 212.253906 614.6875 C 213.394531 614.957031 214.554688 615.066406 215.726562 615.015625 C 216.898438 614.964844 218.042969 614.753906 219.15625 614.386719 L 341.363281 573.632812 C 345.148438 572.386719 348.457031 570.363281 351.285156 567.558594 L 696.195312 222.597656 Z M 696.195312 222.546875 " fill-opacity="1" fill-rule="nonzero"/><path fill="#ffffff" d="M 50.625 683.4375 C 50.625 684.679688 50.65625 685.921875 50.714844 687.164062 C 50.777344 688.40625 50.867188 689.644531 50.992188 690.878906 C 51.113281 692.117188 51.265625 693.351562 51.445312 694.578125 C 51.628906 695.808594 51.839844 697.03125 52.085938 698.253906 C 52.328125 699.472656 52.597656 700.683594 52.902344 701.890625 C 53.203125 703.09375 53.535156 704.292969 53.894531 705.480469 C 54.253906 706.671875 54.644531 707.851562 55.0625 709.019531 C 55.484375 710.191406 55.929688 711.347656 56.40625 712.496094 C 56.882812 713.644531 57.382812 714.78125 57.914062 715.90625 C 58.445312 717.027344 59.003906 718.136719 59.589844 719.234375 C 60.175781 720.332031 60.789062 721.410156 61.429688 722.476562 C 62.066406 723.542969 62.730469 724.59375 63.421875 725.625 C 64.113281 726.660156 64.828125 727.675781 65.570312 728.671875 C 66.308594 729.671875 67.074219 730.652344 67.863281 731.613281 C 68.652344 732.574219 69.460938 733.511719 70.296875 734.433594 C 71.132812 735.355469 71.988281 736.253906 72.867188 737.132812 C 73.746094 738.011719 74.644531 738.867188 75.566406 739.703125 C 76.488281 740.539062 77.425781 741.347656 78.386719 742.136719 C 79.347656 742.925781 80.328125 743.691406 81.328125 744.429688 C 82.324219 745.171875 83.339844 745.886719 84.375 746.578125 C 85.40625 747.269531 86.457031 747.933594 87.523438 748.570312 C 88.589844 749.210938 89.667969 749.824219 90.765625 750.410156 C 91.863281 750.996094 92.972656 751.554688 94.09375 752.085938 C 95.21875 752.617188 96.355469 753.117188 97.503906 753.59375 C 98.652344 754.070312 99.808594 754.515625 100.980469 754.9375 C 102.148438 755.355469 103.328125 755.746094 104.519531 756.105469 C 105.707031 756.464844 106.90625 756.796875 108.109375 757.097656 C 109.316406 757.402344 110.527344 757.671875 111.746094 757.914062 C 112.964844 758.160156 114.191406 758.371094 115.421875 758.554688 C 116.648438 758.734375 117.882812 758.886719 119.121094 759.007812 C 120.355469 759.132812 121.59375 759.222656 122.835938 759.285156 C 124.078125 759.34375 125.320312 759.375 126.5625 759.375 L 683.4375 759.375 C 684.679688 759.375 685.921875 759.34375 687.164062 759.285156 C 688.40625 759.222656 689.644531 759.132812 690.878906 759.007812 C 692.117188 758.886719 693.351562 758.734375 694.578125 758.554688 C 695.808594 758.371094 697.03125 758.160156 698.253906 757.914062 C 699.472656 757.671875 700.683594 757.402344 701.890625 757.097656 C 703.09375 756.796875 704.292969 756.464844 705.480469 756.105469 C 706.671875 755.746094 707.851562 755.355469 709.019531 754.9375 C 710.191406 754.515625 711.347656 754.070312 712.496094 753.59375 C 713.644531 753.117188 714.78125 752.617188 715.90625 752.085938 C 717.027344 751.554688 718.136719 750.996094 719.234375 750.410156 C 720.332031 749.824219 721.410156 749.210938 722.476562 748.570312 C 723.542969 747.933594 724.59375 747.269531 725.625 746.578125 C 726.660156 745.886719 727.675781 745.171875 728.671875 744.429688 C 729.671875 743.691406 730.652344 742.925781 731.613281 742.136719 C 732.574219 741.347656 733.511719 740.539062 734.433594 739.703125 C 735.355469 738.867188 736.253906 738.011719 737.132812 737.132812 C 738.011719 736.253906 738.867188 735.355469 739.703125 734.433594 C 740.539062 733.511719 741.347656 732.574219 742.136719 731.613281 C 742.925781 730.652344 743.691406 729.671875 744.429688 728.671875 C 745.171875 727.675781 745.886719 726.660156 746.578125 725.625 C 747.269531 724.59375 747.933594 723.542969 748.570312 722.476562 C 749.210938 721.410156 749.824219 720.332031 750.410156 719.234375 C 750.996094 718.136719 751.554688 717.027344 752.085938 715.90625 C 752.617188 714.78125 753.117188 713.644531 753.59375 712.496094 C 754.070312 711.347656 754.515625 710.191406 754.9375 709.019531 C 755.355469 707.851562 755.746094 706.671875 756.105469 705.480469 C 756.464844 704.292969 756.796875 703.09375 757.097656 701.890625 C 757.402344 700.683594 757.671875 699.472656 757.914062 698.253906 C 758.160156 697.03125 758.371094 695.808594 758.554688 694.578125 C 758.734375 693.351562 758.886719 692.117188 759.007812 690.878906 C 759.132812 689.644531 759.222656 688.40625 759.285156 687.164062 C 759.34375 685.921875 759.375 684.679688 759.375 683.4375 L 759.375 379.6875 C 759.375 378.859375 759.335938 378.03125 759.253906 377.207031 C 759.171875 376.382812 759.050781 375.5625 758.886719 374.75 C 758.726562 373.9375 758.527344 373.132812 758.285156 372.339844 C 758.042969 371.546875 757.765625 370.765625 757.449219 370 C 757.132812 369.234375 756.777344 368.488281 756.386719 367.753906 C 755.996094 367.023438 755.570312 366.3125 755.109375 365.625 C 754.648438 364.933594 754.15625 364.269531 753.628906 363.628906 C 753.101562 362.988281 752.546875 362.375 751.960938 361.789062 C 751.375 361.203125 750.761719 360.648438 750.121094 360.121094 C 749.480469 359.59375 748.816406 359.101562 748.125 358.640625 C 747.4375 358.179688 746.726562 357.753906 745.996094 357.363281 C 745.261719 356.972656 744.515625 356.617188 743.75 356.300781 C 742.984375 355.984375 742.203125 355.707031 741.410156 355.464844 C 740.617188 355.222656 739.8125 355.023438 739 354.863281 C 738.1875 354.699219 737.367188 354.578125 736.542969 354.496094 C 735.71875 354.414062 734.890625 354.375 734.0625 354.375 C 733.234375 354.375 732.40625 354.414062 731.582031 354.496094 C 730.757812 354.578125 729.9375 354.699219 729.125 354.863281 C 728.3125 355.023438 727.507812 355.222656 726.714844 355.464844 C 725.921875 355.707031 725.140625 355.984375 724.375 356.300781 C 723.609375 356.617188 722.859375 356.972656 722.128906 357.363281 C 721.398438 357.753906 720.6875 358.179688 720 358.640625 C 719.308594 359.101562 718.644531 359.59375 718.003906 360.121094 C 717.363281 360.648438 716.75 361.203125 716.164062 361.789062 C 715.578125 362.375 715.023438 362.988281 714.496094 363.628906 C 713.96875 364.269531 713.476562 364.933594 713.015625 365.625 C 712.554688 366.3125 712.128906 367.023438 711.738281 367.753906 C 711.347656 368.488281 710.992188 369.234375 710.675781 370 C 710.359375 370.765625 710.082031 371.546875 709.839844 372.339844 C 709.597656 373.132812 709.398438 373.9375 709.234375 374.75 C 709.074219 375.5625 708.953125 376.382812 708.871094 377.207031 C 708.789062 378.03125 708.75 378.859375 708.75 379.6875 L 708.75 683.4375 C 708.75 684.265625 708.710938 685.09375 708.628906 685.917969 C 708.546875 686.742188 708.425781 687.5625 708.261719 688.375 C 708.101562 689.1875 707.902344 689.992188 707.660156 690.785156 C 707.417969 691.578125 707.140625 692.359375 706.824219 693.125 C 706.503906 693.890625 706.152344 694.636719 705.761719 695.371094 C 705.371094 696.101562 704.945312 696.8125 704.484375 697.5 C 704.023438 698.191406 703.53125 698.855469 703.003906 699.496094 C 702.476562 700.136719 701.921875 700.75 701.335938 701.335938 C 700.75 701.921875 700.136719 702.476562 699.496094 703.003906 C 698.855469 703.53125 698.191406 704.023438 697.5 704.484375 C 696.8125 704.945312 696.101562 705.371094 695.371094 705.761719 C 694.636719 706.152344 693.890625 706.503906 693.125 706.824219 C 692.359375 707.140625 691.578125 707.417969 690.785156 707.660156 C 689.992188 707.902344 689.1875 708.101562 688.375 708.261719 C 687.5625 708.425781 686.742188 708.546875 685.917969 708.628906 C 685.09375 708.710938 684.265625 708.75 683.4375 708.75 L 126.5625 708.75 C 125.734375 708.75 124.90625 708.710938 124.082031 708.628906 C 123.257812 708.546875 122.4375 708.425781 121.625 708.261719 C 120.8125 708.101562 120.007812 707.902344 119.214844 707.660156 C 118.421875 707.417969 117.640625 707.140625 116.875 706.824219 C 116.109375 706.503906 115.363281 706.152344 114.628906 705.761719 C 113.898438 705.371094 113.1875 704.945312 112.5 704.484375 C 111.808594 704.023438 111.144531 703.53125 110.503906 703.003906 C 109.863281 702.476562 109.25 701.921875 108.664062 701.335938 C 108.078125 700.75 107.523438 700.136719 106.996094 699.496094 C 106.46875 698.855469 105.976562 698.191406 105.515625 697.5 C 105.054688 696.8125 104.628906 696.101562 104.238281 695.371094 C 103.847656 694.636719 103.492188 693.890625 103.175781 693.125 C 102.859375 692.359375 102.582031 691.578125 102.339844 690.785156 C 102.097656 689.992188 101.898438 689.1875 101.738281 688.375 C 101.574219 687.5625 101.453125 686.742188 101.371094 685.917969 C 101.289062 685.09375 101.25 684.265625 101.25 683.4375 L 101.25 126.5625 C 101.25 125.734375 101.289062 124.90625 101.371094 124.082031 C 101.453125 123.257812 101.574219 122.4375 101.738281 121.625 C 101.898438 120.8125 102.097656 120.007812 102.339844 119.214844 C 102.582031 118.421875 102.859375 117.640625 103.175781 116.875 C 103.492188 116.109375 103.847656 115.363281 104.238281 114.628906 C 104.628906 113.898438 105.054688 113.1875 105.515625 112.5 C 105.976562 111.808594 106.46875 111.144531 106.996094 110.503906 C 107.523438 109.863281 108.078125 109.25 108.664062 108.664062 C 109.25 108.078125 109.863281 107.523438 110.503906 106.996094 C 111.144531 106.46875 111.808594 105.976562 112.5 105.515625 C 113.1875 105.054688 113.898438 104.628906 114.628906 104.238281 C 115.363281 103.847656 116.109375 103.492188 116.875 103.175781 C 117.640625 102.859375 118.421875 102.582031 119.214844 102.339844 C 120.007812 102.097656 120.8125 101.898438 121.625 101.738281 C 122.4375 101.574219 123.257812 101.453125 124.082031 101.371094 C 124.90625 101.289062 125.734375 101.25 126.5625 101.25 L 455.625 101.25 C 456.453125 101.25 457.28125 101.210938 458.105469 101.128906 C 458.929688 101.046875 459.75 100.925781 460.5625 100.761719 C 461.375 100.601562 462.179688 100.402344 462.972656 100.160156 C 463.765625 99.917969 464.546875 99.640625 465.3125 99.324219 C 466.078125 99.007812 466.824219 98.652344 467.558594 98.261719 C 468.289062 97.871094 469 97.445312 469.6875 96.984375 C 470.378906 96.523438 471.042969 96.03125 471.683594 95.503906 C 472.324219 94.976562 472.9375 94.421875 473.523438 93.835938 C 474.109375 93.25 474.664062 92.636719 475.191406 91.996094 C 475.71875 91.355469 476.210938 90.691406 476.671875 90 C 477.132812 89.3125 477.558594 88.601562 477.949219 87.871094 C 478.339844 87.136719 478.691406 86.390625 479.011719 85.625 C 479.328125 84.859375 479.605469 84.078125 479.847656 83.285156 C 480.089844 82.492188 480.289062 81.6875 480.449219 80.875 C 480.613281 80.0625 480.734375 79.242188 480.816406 78.417969 C 480.898438 77.59375 480.9375 76.765625 480.9375 75.9375 C 480.9375 75.109375 480.898438 74.28125 480.816406 73.457031 C 480.734375 72.632812 480.613281 71.8125 480.449219 71 C 480.289062 70.1875 480.089844 69.382812 479.847656 68.589844 C 479.605469 67.796875 479.328125 67.015625 479.011719 66.25 C 478.691406 65.484375 478.339844 64.738281 477.949219 64.003906 C 477.558594 63.273438 477.132812 62.5625 476.671875 61.875 C 476.210938 61.183594 475.71875 60.519531 475.191406 59.878906 C 474.664062 59.238281 474.109375 58.625 473.523438 58.039062 C 472.9375 57.453125 472.324219 56.898438 471.683594 56.371094 C 471.042969 55.84375 470.378906 55.351562 469.6875 54.890625 C 469 54.429688 468.289062 54.003906 467.558594 53.613281 C 466.824219 53.222656 466.078125 52.867188 465.3125 52.550781 C 464.546875 52.234375 463.765625 51.957031 462.972656 51.714844 C 462.179688 51.472656 461.375 51.273438 460.5625 51.113281 C 459.75 50.949219 458.929688 50.828125 458.105469 50.746094 C 457.28125 50.664062 456.453125 50.625 455.625 50.625 L 126.5625 50.625 C 125.320312 50.625 124.078125 50.65625 122.835938 50.714844 C 121.59375 50.777344 120.355469 50.867188 119.121094 50.992188 C 117.882812 51.113281 116.648438 51.265625 115.421875 51.445312 C 114.191406 51.628906 112.964844 51.839844 111.746094 52.085938 C 110.527344 52.328125 109.316406 52.597656 108.109375 52.902344 C 106.90625 53.203125 105.707031 53.535156 104.519531 53.894531 C 103.328125 54.253906 102.148438 54.644531 100.980469 55.0625 C 99.808594 55.484375 98.652344 55.929688 97.503906 56.40625 C 96.355469 56.882812 95.21875 57.382812 94.09375 57.914062 C 92.972656 58.445312 91.863281 59.003906 90.765625 59.589844 C 89.667969 60.175781 88.589844 60.789062 87.523438 61.429688 C 86.457031 62.066406 85.40625 62.730469 84.375 63.421875 C 83.339844 64.113281 82.324219 64.828125 81.328125 65.570312 C 80.328125 66.308594 79.347656 67.074219 78.386719 67.863281 C 77.425781 68.652344 76.488281 69.460938 75.566406 70.296875 C 74.644531 71.132812 73.746094 71.988281 72.867188 72.867188 C 71.988281 73.746094 71.132812 74.644531 70.296875 75.566406 C 69.460938 76.488281 68.652344 77.425781 67.863281 78.386719 C 67.074219 79.347656 66.308594 80.328125 65.570312 81.328125 C 64.828125 82.324219 64.113281 83.339844 63.421875 84.375 C 62.730469 85.40625 62.066406 86.457031 61.429688 87.523438 C 60.789062 88.589844 60.175781 89.667969 59.589844 90.765625 C 59.003906 91.863281 58.445312 92.972656 57.914062 94.09375 C 57.382812 95.21875 56.882812 96.355469 56.40625 97.503906 C 55.929688 98.652344 55.484375 99.808594 55.0625 100.980469 C 54.644531 102.148438 54.253906 103.328125 53.894531 104.519531 C 53.535156 105.707031 53.203125 106.90625 52.902344 108.109375 C 52.597656 109.316406 52.328125 110.527344 52.085938 111.746094 C 51.839844 112.964844 51.628906 114.191406 51.445312 115.421875 C 51.265625 116.648438 51.113281 117.882812 50.992188 119.121094 C 50.867188 120.355469 50.777344 121.59375 50.714844 122.835938 C 50.65625 124.078125 50.625 125.320312 50.625 126.5625 Z M 50.625 683.4375 " fill-opacity="1" fill-rule="evenodd"/></svg>